<?xml version="1.0" encoding="UTF-8"?>
<svg width="134px" height="31px" viewBox="0 0 134 31" version="1.1" xmlns="http://www.w3.org/2000/svg" xmlns:xlink="http://www.w3.org/1999/xlink">
    <!-- Generator: Sketch 41.2 (35397) - http://www.bohemiancoding.com/sketch -->
    <title>Logo main</title>
    <desc>Created with Sketch.</desc>
    <defs/>
    <g id="Signup" stroke="none" stroke-width="1" fill="none" fill-rule="evenodd">
        <g id="Signup-1" transform="translate(-20.000000, -20.000000)">
            <g id="Jumbo">
                <g id="Top" transform="translate(20.000000, 20.000000)">
                    <g id="Logo-main">
                        <path d="M46.1532728,20.9498286 L40.5886772,8.08864316 C40.5699411,8.03248049 40.5605732,7.96695837 40.5605732,7.89207482 C40.5605732,7.68614506 40.6355165,7.50829929 40.7854054,7.35853219 C40.9352942,7.20876509 41.1132845,7.13388266 41.3193817,7.13388266 L43.427183,7.13388266 C43.6520163,7.13388266 43.8487425,7.20876509 44.0173674,7.35853219 C44.1859924,7.50829929 44.2984073,7.65806415 44.3546156,7.80783125 L48.09245,16.4849192 L51.8302844,7.80783125 C51.8864927,7.65806415 51.9989076,7.50829929 52.1675326,7.35853219 C52.3361575,7.20876509 52.5328837,7.13388266 52.757717,7.13388266 L54.8655183,7.13388266 C55.0716155,7.13388266 55.2496058,7.20876509 55.3994946,7.35853219 C55.5493835,7.50829929 55.6243268,7.68614506 55.6243268,7.89207482 C55.6243268,7.96695837 55.6149589,8.03248049 55.5962228,8.08864316 L47.6989938,26.3975797 C47.6427854,26.5473468 47.5303705,26.6971116 47.3617455,26.8468787 C47.1931206,26.9966458 46.9963944,27.0715282 46.7715612,27.0715282 L44.6637598,27.0715282 C44.4576627,27.0715282 44.2796723,26.9966458 44.1297835,26.8468787 C43.9798946,26.6971116 43.9049513,26.5192658 43.9049513,26.3133361 C43.9049513,26.2384525 43.9143193,26.1729304 43.9330554,26.1167677 L46.1532728,20.9498286 Z M64.6780217,7.330451 C65.5117784,7.64870609 66.2331076,8.08864035 66.8420311,8.65026697 C67.4509545,9.2118936 67.9380859,9.86711484 68.30344,10.6159503 C68.668794,11.3647858 68.8795721,12.1697719 68.9357804,13.0309328 C68.9545165,13.1994208 68.9638844,13.4147077 68.9638844,13.6768002 L68.9638844,14.4630735 L68.9638844,15.2353063 C68.9638844,15.4880382 68.9545165,15.6986451 68.9357804,15.867133 C68.860836,16.7282939 68.645374,17.53328 68.289388,18.2821155 C67.933402,19.030951 67.4509545,19.6814921 66.8420311,20.2337582 C66.2331076,20.7860244 65.5117784,21.2212785 64.6780217,21.5395336 C63.844265,21.8577887 62.9121577,22.0169139 61.8816719,22.0169139 C60.8511861,22.0169139 59.9190788,21.8577887 59.0853221,21.5395336 C58.2515654,21.2212785 57.5302362,20.7860244 56.9213128,20.2337582 C56.3123893,19.6814921 55.8299418,19.030951 55.4739558,18.2821155 C55.1179698,17.53328 54.9025078,16.7282939 54.8275634,15.867133 C54.8088273,15.6986451 54.7947754,15.4880382 54.7854074,15.2353063 C54.7760393,14.9825743 54.7713554,14.7251659 54.7713554,14.4630735 C54.7713554,14.2009811 54.7760393,13.9388926 54.7854074,13.6768002 C54.7947754,13.4147077 54.8088273,13.1994208 54.8275634,13.0309328 C54.8837717,12.1697719 55.0945498,11.3647858 55.4599038,10.6159503 C55.8252579,9.86711484 56.3123893,9.2118936 56.9213128,8.65026697 C57.5302362,8.08864035 58.2515654,7.64870609 59.0853221,7.330451 C59.9190788,7.01219591 60.8511861,6.85307075 61.8816719,6.85307075 C62.9121577,6.85307075 63.844265,7.01219591 64.6780217,7.330451 Z M65.2822581,13.1713387 C65.2260497,12.5909912 65.090215,12.1089356 64.8747498,11.7251574 C64.6592846,11.3413792 64.3922991,11.0371693 64.0737853,10.8125187 C63.7552715,10.587868 63.4086587,10.433423 63.0339366,10.349179 C62.6592145,10.264935 62.2751301,10.2228137 61.8816719,10.2228137 C61.4882137,10.2228137 61.1041293,10.264935 60.7294072,10.349179 C60.3546851,10.433423 60.0080723,10.587868 59.6895585,10.8125187 C59.3710447,11.0371693 59.1040592,11.3413792 58.888594,11.7251574 C58.6731288,12.1089356 58.5372941,12.5909912 58.4810857,13.1713387 C58.4623496,13.3211058 58.4482978,13.5083119 58.4389297,13.7329625 C58.4295617,13.9576132 58.4248777,14.1916208 58.4248777,14.4349923 C58.4248777,14.6783638 58.4295617,14.9170516 58.4389297,15.1510627 C58.4482978,15.3850738 58.4623496,15.5675997 58.4810857,15.6986459 C58.5372941,16.2789934 58.6731288,16.761049 58.888594,17.1448272 C59.1040592,17.5286054 59.3710447,17.8328153 59.6895585,18.0574659 C60.0080723,18.2821166 60.3546851,18.4365616 60.7294072,18.5208056 C61.1041293,18.6050496 61.4882137,18.647171 61.8816719,18.647171 C62.2751301,18.647171 62.6592145,18.6050496 63.0339366,18.5208056 C63.4086587,18.4365616 63.7552715,18.2821166 64.0737853,18.0574659 C64.3922991,17.8328153 64.6592846,17.5286054 64.8747498,17.1448272 C65.090215,16.761049 65.2260497,16.2789934 65.2822581,15.6986459 C65.3009942,15.5675997 65.3103621,15.3850738 65.3103621,15.1510627 L65.3103621,14.4349923 L65.3103621,13.7329625 C65.3103621,13.5083119 65.3009942,13.3211058 65.2822581,13.1713387 L65.2822581,13.1713387 Z M69.8252581,7.89207482 C69.8252581,7.68614506 69.9002014,7.50829929 70.0500902,7.35853219 C70.1999791,7.20876509 70.3779694,7.13388266 70.5840666,7.13388266 L72.7199719,7.13388266 C72.9260691,7.13388266 73.1040594,7.20876509 73.2539483,7.35853219 C73.4038371,7.50829929 73.4787804,7.68614506 73.4787804,7.89207482 L73.4787804,15.0246973 C73.4787804,16.1479506 73.7176622,17.0465397 74.1954329,17.7204917 C74.6732036,18.3944436 75.4554242,18.7314145 76.5421184,18.7314145 C77.535132,18.7314145 78.2939328,18.3944436 78.8185438,17.7204917 C79.3431548,17.0465397 79.6054563,16.1479506 79.6054563,15.0246973 L79.6054563,7.89207482 C79.6054563,7.68614506 79.6803996,7.50829929 79.8302884,7.35853219 C79.9801773,7.20876509 80.1581676,7.13388266 80.3642648,7.13388266 L82.5001701,7.13388266 C82.7062673,7.13388266 82.8842576,7.20876509 83.0341465,7.35853219 C83.1840353,7.50829929 83.2589786,7.68614506 83.2589786,7.89207482 L83.2589786,20.9779098 C83.2589786,21.1838396 83.1840353,21.3616853 83.0341465,21.5114524 C82.8842576,21.6612195 82.7062673,21.736102 82.5001701,21.736102 L80.3642648,21.736102 C80.1581676,21.736102 79.9801773,21.6612195 79.8302884,21.5114524 C79.6803996,21.3616853 79.6054563,21.1838396 79.6054563,20.9779098 L79.6054563,20.3320424 C79.1745259,20.7626228 78.6405549,21.1510754 78.0035273,21.4974118 C77.3664997,21.8437483 76.5983309,22.0169139 75.6989978,22.0169139 C74.5560954,22.0169139 73.6099362,21.8390681 72.860492,21.4833712 C72.1110478,21.1276744 71.5115014,20.6502989 71.0618349,20.0512305 C70.6121683,19.4521621 70.2936593,18.7548195 70.1062983,17.9591818 C69.9189372,17.1635441 69.8252581,16.3257969 69.8252581,15.4459152 L69.8252581,7.89207482 Z" id="youmee" fill="#FFFFFF"/>
                        <path d="M86.9345205,8.73451055 C87.4029232,8.13544214 87.95563,7.67210713 88.5926576,7.3444916 C89.2296852,7.01687606 90.0165898,6.85307075 90.9533951,6.85307075 C92.0213531,6.85307075 92.9300406,7.07771803 93.6794848,7.52701934 C94.428929,7.97632064 95.0191075,8.63154187 95.4500379,9.4927027 C95.8809684,8.68770454 96.5133025,8.04652376 97.3470592,7.56914112 C98.1808159,7.09175849 99.1410269,6.85307075 100.227721,6.85307075 C100.977165,6.85307075 101.670391,6.984115 102.307418,7.24620743 C102.944446,7.50829985 103.497153,7.89207229 103.965555,8.39753626 C104.433958,8.90300022 104.803991,9.5348207 105.075664,10.2930166 C105.347338,11.0512126 105.483172,11.9357613 105.483172,12.9466892 L105.483172,21.1183158 C105.483172,21.5301753 105.277078,21.736102 104.864884,21.736102 L104.387116,21.736102 C103.974921,21.736102 103.768827,21.5301753 103.768827,21.1183158 L103.768827,13.2275011 C103.768827,12.3101776 103.66578,11.5473129 103.459683,10.938884 C103.253586,10.3304552 102.972549,9.84371941 102.616562,9.47866211 C102.260576,9.1136048 101.853072,8.85619646 101.394038,8.70642936 C100.935003,8.55666226 100.452556,8.48177983 99.9466808,8.48177983 C99.5157504,8.48177983 99.0801425,8.55666226 98.639844,8.70642936 C98.1995455,8.85619646 97.7967253,9.1136048 97.4313712,9.47866211 C97.0660171,9.84371941 96.7709279,10.3304552 96.5460946,10.938884 C96.3212614,11.5473129 96.2088464,12.3101776 96.2088464,13.2275011 L96.2088464,21.1183158 C96.2088464,21.5301753 96.0027524,21.736102 95.590558,21.736102 L95.1127897,21.736102 C94.7005954,21.736102 94.4945013,21.5301753 94.4945013,21.1183158 L94.4945013,13.2275011 C94.4945013,12.3101776 94.3820864,11.5473129 94.1572531,10.938884 C93.9324199,10.3304552 93.6420146,9.84371941 93.2860286,9.47866211 C92.9300426,9.1136048 92.5225384,8.85619646 92.0635038,8.70642936 C91.6044692,8.55666226 91.1407576,8.48177983 90.6723549,8.48177983 C90.2414245,8.48177983 89.8058166,8.55666226 89.3655181,8.70642936 C88.9252196,8.85619646 88.5223994,9.1136048 88.1570453,9.47866211 C87.7916913,9.84371941 87.496602,10.325775 87.2717688,10.9248434 C87.0469355,11.5239118 86.9345205,12.2820964 86.9345205,13.1994199 L86.9345205,21.1183158 C86.9345205,21.5301753 86.7284265,21.736102 86.3162321,21.736102 L85.8384638,21.736102 C85.4262695,21.736102 85.2201754,21.5301753 85.2201754,21.1183158 L85.2201754,7.75166886 C85.2201754,7.33980934 85.4262695,7.13388266 85.8384638,7.13388266 L86.3162321,7.13388266 C86.7284265,7.13388266 86.9345205,7.33980934 86.9345205,7.75166886 L86.9345205,8.73451055 Z M107.658192,13.3117447 C107.733136,12.3569794 107.925178,11.481791 108.234324,10.6861533 C108.54347,9.8905156 108.955658,9.2118936 109.470901,8.65026697 C109.986144,8.08864035 110.60911,7.64870609 111.339818,7.330451 C112.070526,7.01219591 112.894902,6.85307075 113.812971,6.85307075 C115.780263,6.85307075 117.307232,7.49425154 118.393926,8.77663233 C119.480621,10.0590131 120.023959,11.8327906 120.023959,14.098018 L120.023959,14.5192359 C120.023959,14.7064448 119.963068,14.8562096 119.841283,14.9685349 C119.719499,15.0808603 119.564928,15.1370221 119.377567,15.1370221 L109.372537,15.1370221 L109.372537,15.417834 C109.391273,16.0543442 109.508372,16.6721242 109.723837,17.2711926 C109.939302,17.870261 110.234391,18.3991181 110.609113,18.8577799 C110.983836,19.3164416 111.442863,19.6861736 111.98621,19.9669869 C112.529557,20.2478002 113.138472,20.3882048 113.812971,20.3882048 C114.412527,20.3882048 114.93713,20.3133224 115.386796,20.1635553 C115.836463,20.0137882 116.220547,19.8406225 116.539061,19.6440532 C116.857575,19.4474839 117.115193,19.2462374 117.311922,19.0403076 C117.508651,18.8343779 117.644486,18.6752527 117.71943,18.5629274 C117.888055,18.3195558 118.019206,18.1744711 118.112886,18.1276689 C118.206567,18.0808667 118.356453,18.0574659 118.562551,18.0574659 L119.012215,18.0574659 C119.18084,18.0574659 119.326042,18.1089476 119.447827,18.2119125 C119.569612,18.3148774 119.621135,18.4506018 119.602399,18.6190898 C119.583663,18.8811822 119.43846,19.2087928 119.166787,19.6019314 C118.895113,19.9950701 118.511029,20.3694822 118.014522,20.7251791 C117.518015,21.0808759 116.913785,21.3850858 116.201813,21.6378178 C115.489841,21.8905498 114.693568,22.0169139 113.812971,22.0169139 C112.913638,22.0169139 112.09863,21.8624689 111.367922,21.5535742 C110.637214,21.2446796 110.009564,20.8047453 109.484953,20.2337582 C108.960342,19.6627712 108.54347,18.979469 108.234324,18.1838313 C107.925178,17.3881936 107.733136,16.5130052 107.658192,15.5582399 C107.639455,15.2774266 107.630088,14.9030145 107.630088,14.4349923 C107.630088,13.9669701 107.639455,13.592558 107.658192,13.3117447 L107.658192,13.3117447 Z M109.372537,13.5644754 L118.309614,13.5644754 L118.309614,13.4521506 C118.309614,12.7594778 118.206567,12.1089367 118.00047,11.5005079 C117.794373,10.892079 117.499284,10.3632219 117.115194,9.91392057 C116.731103,9.46461927 116.258024,9.11360789 115.695941,8.86087591 C115.133858,8.60814392 114.506207,8.48177983 113.812971,8.48177983 C113.100999,8.48177983 112.473349,8.60814392 111.930002,8.86087591 C111.386655,9.11360789 110.922944,9.46461927 110.538853,9.91392057 C110.154763,10.3632219 109.864358,10.892079 109.667629,11.5005079 C109.4709,12.1089367 109.372537,12.7594778 109.372537,13.4521506 L109.372537,13.5644754 Z M121.496378,13.3117447 C121.571323,12.3569794 121.763365,11.481791 122.072511,10.6861533 C122.381656,9.8905156 122.793844,9.2118936 123.309087,8.65026697 C123.82433,8.08864035 124.447296,7.64870609 125.178005,7.330451 C125.908713,7.01219591 126.733089,6.85307075 127.651158,6.85307075 C129.618449,6.85307075 131.145419,7.49425154 132.232113,8.77663233 C133.318807,10.0590131 133.862146,11.8327906 133.862146,14.098018 L133.862146,14.5192359 C133.862146,14.7064448 133.801255,14.8562096 133.67947,14.9685349 C133.557685,15.0808603 133.403115,15.1370221 133.215754,15.1370221 L123.210723,15.1370221 L123.210723,15.417834 C123.229459,16.0543442 123.346558,16.6721242 123.562024,17.2711926 C123.777489,17.870261 124.072578,18.3991181 124.4473,18.8577799 C124.822022,19.3164416 125.28105,19.6861736 125.824397,19.9669869 C126.367744,20.2478002 126.976658,20.3882048 127.651158,20.3882048 C128.250714,20.3882048 128.775317,20.3133224 129.224983,20.1635553 C129.67465,20.0137882 130.058734,19.8406225 130.377248,19.6440532 C130.695762,19.4474839 130.953379,19.2462374 131.150108,19.0403076 C131.346837,18.8343779 131.482672,18.6752527 131.557617,18.5629274 C131.726242,18.3195558 131.857392,18.1744711 131.951073,18.1276689 C132.044753,18.0808667 132.19464,18.0574659 132.400737,18.0574659 L132.850401,18.0574659 C133.019026,18.0574659 133.164229,18.1089476 133.286014,18.2119125 C133.407798,18.3148774 133.459322,18.4506018 133.440586,18.6190898 C133.42185,18.8811822 133.276647,19.2087928 133.004974,19.6019314 C132.7333,19.9950701 132.349216,20.3694822 131.852709,20.7251791 C131.356202,21.0808759 130.751972,21.3850858 130.04,21.6378178 C129.328028,21.8905498 128.531755,22.0169139 127.651158,22.0169139 C126.751825,22.0169139 125.936817,21.8624689 125.206109,21.5535742 C124.4754,21.2446796 123.84775,20.8047453 123.323139,20.2337582 C122.798528,19.6627712 122.381656,18.979469 122.072511,18.1838313 C121.763365,17.3881936 121.571323,16.5130052 121.496378,15.5582399 C121.477642,15.2774266 121.468274,14.9030145 121.468274,14.4349923 C121.468274,13.9669701 121.477642,13.592558 121.496378,13.3117447 L121.496378,13.3117447 Z M123.210723,13.5644754 L132.147801,13.5644754 L132.147801,13.4521506 C132.147801,12.7594778 132.044754,12.1089367 131.838657,11.5005079 C131.63256,10.892079 131.33747,10.3632219 130.95338,9.91392057 C130.56929,9.46461927 130.096211,9.11360789 129.534127,8.86087591 C128.972044,8.60814392 128.344394,8.48177983 127.651158,8.48177983 C126.939186,8.48177983 126.311536,8.60814392 125.768189,8.86087591 C125.224842,9.11360789 124.76113,9.46461927 124.37704,9.91392057 C123.99295,10.3632219 123.702545,10.892079 123.505816,11.5005079 C123.309086,12.1089367 123.210723,12.7594778 123.210723,13.4521506 L123.210723,13.5644754 Z" id="mee" fill="#FFFFFF"/>
                        <g id="Group-3" fill="#FFFFFF">
                            <path d="M28.7709614,23.651648 C26.0390578,28.0619625 21.1534289,31 15.5810268,31 C11.9619071,31 8.63247795,29.7606946 5.99462031,27.6836384 C6.39888002,26.7596886 6.79913396,25.8123263 6.79913396,25.8123263 L11.5593331,14.779647 C12.1771581,13.4627547 12.6824581,12.4528016 12.8565881,12.2876621 C13.4264539,11.7472191 14.1142126,11.4770017 14.9198849,11.4770017 C15.8434604,11.4770017 16.5606945,11.7423061 17.0716087,12.2729229 C17.5825228,12.8035396 17.837976,13.7370181 17.837976,15.0733863 L17.837976,22.8557268 C17.837976,23.071904 17.916577,23.2585997 18.0737814,23.4158195 C18.2309857,23.5730393 18.4176631,23.651648 18.6338191,23.651648 L20.8739698,23.651648 C21.0901258,23.651648 21.2768032,23.5730393 21.4340075,23.4158195 C21.5912119,23.2585997 21.6698129,23.071904 21.6698129,22.8557268 L21.6698129,14.9259935 C21.709114,13.6485827 22.0087803,12.7544086 22.5688208,12.2434443 C23.1288613,11.73248 23.8018823,11.4770017 24.587904,11.4770017 C25.5114796,11.4770017 26.2287137,11.7423061 26.7396278,12.2729229 C27.2505419,12.8035396 27.5059952,13.7370181 27.5059952,15.0733863 L27.5059952,22.8557268 C27.5059952,23.071904 27.5845962,23.2585997 27.7418005,23.4158195 C27.8990049,23.5730393 28.0856822,23.651648 28.3018382,23.651648 L28.7709614,23.651648 Z M0.913227731,10.4903435 C0.373361912,12.0650857 0.0803571429,13.7543134 0.0803571429,15.5119205 C0.0803571429,19.1637923 1.34527453,22.5204668 3.46121085,25.1683818 L5.17893529,20.3982229 L0.913227731,10.4903435 Z" id="Combined-Shape"/>
                            <path d="M30.1278683,10.1505763 C27.9448389,4.23903941 22.2555892,0.0238409141 15.5810268,0.0238409141 C10.3078896,0.0238409141 5.64974034,2.65477869 2.84964956,6.6745934 C3.23897819,7.53876002 3.68118427,8.5750613 3.71180594,8.65662786 L7.16234902,16.6643481 L10.6128921,8.65662786 C10.6647802,8.51841409 10.7685549,8.3802024 10.9242193,8.24198863 C11.0798837,8.10377486 11.2614894,8.03466901 11.4690419,8.03466901 L13.4148368,8.03466901 C13.6050933,8.03466901 13.7694032,8.10377486 13.9077716,8.24198863 C13.9456363,8.27981105 13.9783201,8.31957395 14.0058229,8.36127742 C14.5837688,8.13909808 15.1832085,8.02800983 15.8041549,8.02800983 C17.0421392,8.02800983 18.054127,8.25892293 18.8401488,8.72075605 C19.6261705,9.18258917 20.2451533,9.78689367 20.6971158,10.5336877 C20.9525729,10.1406382 21.2669769,9.78689897 21.6403372,9.4724594 C22.0136975,9.15801982 22.4116151,8.89271541 22.8341018,8.67653821 C23.2565885,8.460361 23.6938065,8.29823053 24.145769,8.19014192 C24.5977315,8.08205332 25.0398621,8.02800983 25.4721741,8.02800983 C26.5922551,8.02800983 27.5256419,8.21470552 28.2723625,8.58810252 C29.0190832,8.96149951 29.6233284,9.46263007 30.0851161,10.0915092 C30.0995003,10.1110981 30.1137511,10.1307871 30.1278683,10.1505763 Z" id="Combined-Shape"/>
                        </g>
                        <g id="Group-2" transform="translate(0.209375, 5.445946)"/>
                    </g>
                </g>
            </g>
        </g>
    </g>
</svg>